<?xml version="1.0" encoding="UTF-8"?>
<svg xmlns="http://www.w3.org/2000/svg" width="220mm" height="220mm" viewBox="0 0 220 220">
  <rect x="0" y="0" width="220" height="220" fill="#ffffff"/>
  <polygon points="0,0 8,0 0,12" fill="#ff0000" stroke="none"/>
  <path d="M 11.5 67.5 H 208.5 A 4 4 0 0 1 212.5 71.5 V 205.5 A 4 4 0 0 1 208.5 209.5 H 11.5 A 4 4 0 0 1 7.5 205.5 V 71.5 A 4 4 0 0 1 11.5 67.5 Z" fill="none" stroke="#000000" stroke-width="0.4"/>
  <text x="110" y="128" text-anchor="middle" font-family="Arial, sans-serif" font-size="8" fill="#000000">OP 02</text>
  <text x="110" y="138" text-anchor="middle" font-family="Arial, sans-serif" font-size="8" fill="#000000">205 x 142 mm</text>
  <text x="110" y="148" text-anchor="middle" font-family="Arial, sans-serif" font-size="8" fill="#000000">DEPTH 12 mm</text>
  <text x="110" y="158" text-anchor="middle" font-family="Arial, sans-serif" font-size="7" fill="#000000">8 mm cutter / R4 corners</text>
  <text x="110" y="60" text-anchor="middle" font-family="Arial, sans-serif" font-size="5" fill="#000000">leaves 60 mm top ledge</text>
  <text x="110" y="216" text-anchor="middle" font-family="Arial, sans-serif" font-size="5" fill="#000000">leaves 3 mm bottom ledge</text>
  <text x="12" y="18" font-family="Arial, sans-serif" font-size="5" fill="#cc0000">ANCHOR: upper-left corner</text>
</svg>
